<?xml version="1.0" encoding="UTF-8" standalone="no"?>
<!DOCTYPE svg PUBLIC "-//W3C//DTD SVG 1.1//EN" "http://www.w3.org/Graphics/SVG/1.1/DTD/svg11.dtd">
<svg width="100%" height="100%" viewBox="0 0 1250 2221" version="1.1" xmlns="http://www.w3.org/2000/svg" xmlns:xlink="http://www.w3.org/1999/xlink" xml:space="preserve" style="fill-rule:evenodd;clip-rule:evenodd;stroke-linejoin:round;stroke-miterlimit:1.41421;">
    <g transform="matrix(8.81946,0,0,9.5544,5.96901e-05,-0.00131173)">
        <path d="M47.632,152.336L141.732,182.109L141.732,232.441L46.941,232.441L47.632,152.336Z" style="fill:rgb(109,163,96);fill-rule:nonzero;"/>
    </g>
    <g transform="matrix(8.81946,0,0,9.5544,5.96901e-05,-0.00131173)">
        <path d="M0,230.157L47.632,152.336L46.941,232.441L0,232.441L0,230.157Z" style="fill:rgb(103,159,95);fill-rule:nonzero;"/>
    </g>
    <g transform="matrix(8.81946,0,0,9.5544,5.96901e-05,-0.00131173)">
        <path d="M0,128.51L47.632,152.337L1.916,232.441L0,232.441L0,128.51Z" style="fill:rgb(80,137,104);fill-rule:nonzero;"/>
    </g>
    <g transform="matrix(8.81946,0,0,9.5544,5.96901e-05,-0.00131173)">
        <path d="M0,108.204L47.632,152.337L0,129.381L0,108.204Z" style="fill:rgb(92,145,103);fill-rule:nonzero;"/>
    </g>
    <g transform="matrix(8.81946,0,0,9.5544,5.96901e-05,-0.00131173)">
        <path d="M0,0L84.591,0L47.632,152.337L0,110.466L0,0Z" style="fill:rgb(74,130,107);fill-rule:nonzero;"/>
    </g>
    <g transform="matrix(8.81946,0,0,9.5544,5.96901e-05,-0.00131173)">
        <path d="M82.231,0L103.619,0L141.732,85.837L141.732,183.183L47.632,152.337L82.231,0Z" style="fill:rgb(87,139,104);fill-rule:nonzero;"/>
    </g>
    <g transform="matrix(8.81946,0,0,9.5544,5.96901e-05,-0.00131173)">
        <path d="M141.732,0L141.732,86.439L103.111,0L141.732,0Z" style="fill:rgb(64,126,98);fill-rule:nonzero;"/>
    </g>
</svg>
