<?xml version="1.0" encoding="UTF-8" standalone="no"?>
<!DOCTYPE svg PUBLIC "-//W3C//DTD SVG 1.1//EN" "http://www.w3.org/Graphics/SVG/1.1/DTD/svg11.dtd">
<svg width="100%" height="100%" viewBox="0 0 271 136" version="1.1" xmlns="http://www.w3.org/2000/svg" xmlns:xlink="http://www.w3.org/1999/xlink" xml:space="preserve" style="fill-rule:evenodd;clip-rule:evenodd;stroke-linejoin:round;stroke-miterlimit:1.41421;">
    <g transform="matrix(4.16667,0,0,4.16667,-159.809,-117.725)">
        <path d="M49.62,55.819L48.169,53.602L48.169,55.819L47.986,55.819L47.986,53.317L48.194,53.317L49.648,55.53L49.648,53.317L49.828,53.317L49.828,55.819L49.62,55.819Z" style="fill:white;fill-rule:nonzero;"/>
    </g>
    <g transform="matrix(4.16667,0,0,4.16667,-159.809,-117.725)">
        <path d="M51.741,54.912L51.109,54.951C50.848,54.968 50.679,55.106 50.679,55.322C50.679,55.575 50.869,55.703 51.12,55.703C51.564,55.703 51.741,55.343 51.741,55.004L51.741,54.912ZM52.02,55.83C51.801,55.83 51.741,55.671 51.741,55.484C51.646,55.735 51.377,55.865 51.106,55.865C50.763,55.865 50.499,55.66 50.499,55.322C50.499,55.007 50.742,54.82 51.092,54.796L51.741,54.749L51.741,54.577C51.741,54.284 51.543,54.174 51.275,54.174C50.996,54.174 50.784,54.301 50.767,54.562L50.59,54.562C50.615,54.206 50.894,54.008 51.275,54.008C51.515,54.008 51.776,54.089 51.872,54.333C51.914,54.443 51.917,54.556 51.917,54.672L51.917,55.477C51.917,55.597 51.935,55.667 52.055,55.667C52.076,55.667 52.087,55.667 52.104,55.664L52.104,55.819C52.062,55.826 52.062,55.83 52.02,55.83" style="fill:white;fill-rule:nonzero;"/>
    </g>
    <g transform="matrix(4.16667,0,0,4.16667,-159.809,-117.725)">
        <path d="M53.25,55.844C52.922,55.844 52.795,55.636 52.795,55.329L52.795,54.217L52.442,54.217L52.442,54.055L52.795,54.055L52.795,53.567L52.971,53.525L52.971,54.055L53.518,54.055L53.518,54.217L52.971,54.217L52.971,55.322C52.971,55.53 53.028,55.678 53.264,55.678C53.36,55.678 53.448,55.664 53.543,55.647L53.543,55.802C53.444,55.823 53.349,55.844 53.25,55.844" style="fill:white;fill-rule:nonzero;"/>
    </g>
    <g transform="matrix(4.16667,0,0,4.16667,-159.809,-117.725)">
        <path d="M54.092,53.563L54.339,53.563L54.339,53.316L54.092,53.316L54.092,53.563ZM54.124,55.819L54.311,55.819L54.311,54.054L54.124,54.054L54.124,55.819Z" style="fill:white;fill-rule:nonzero;"/>
    </g>
    <g transform="matrix(4.16667,0,0,4.16667,-159.809,-117.725)">
        <path d="M56.117,54.337C56.025,54.242 55.898,54.182 55.729,54.182C55.559,54.182 55.432,54.242 55.34,54.337C55.182,54.503 55.143,54.708 55.143,54.937C55.143,55.166 55.182,55.371 55.34,55.537C55.432,55.632 55.559,55.692 55.729,55.692C55.898,55.692 56.025,55.632 56.117,55.537C56.276,55.371 56.315,55.166 56.315,54.937C56.315,54.708 56.276,54.503 56.117,54.337M56.244,55.653C56.12,55.777 55.948,55.865 55.729,55.865C55.51,55.865 55.337,55.777 55.213,55.653C55.03,55.47 54.963,55.237 54.963,54.937C54.963,54.637 55.03,54.404 55.213,54.221C55.337,54.097 55.51,54.009 55.729,54.009C55.948,54.009 56.12,54.097 56.244,54.221C56.428,54.404 56.495,54.637 56.495,54.937C56.495,55.237 56.428,55.47 56.244,55.653" style="fill:white;fill-rule:nonzero;"/>
    </g>
    <g transform="matrix(4.16667,0,0,4.16667,-159.809,-117.725)">
        <path d="M58.363,55.819L58.363,54.665C58.363,54.358 58.229,54.181 57.908,54.181C57.473,54.181 57.322,54.555 57.322,54.937L57.322,55.819L57.145,55.819L57.145,54.054L57.301,54.054L57.322,54.375C57.42,54.153 57.671,54.008 57.918,54.008C58.324,54.008 58.539,54.259 58.539,54.654L58.539,55.819L58.363,55.819Z" style="fill:white;fill-rule:nonzero;"/>
    </g>
    <g transform="matrix(4.16667,0,0,4.16667,-159.809,-117.725)">
        <path d="M60.402,54.912L59.77,54.951C59.509,54.968 59.34,55.106 59.34,55.322C59.34,55.575 59.53,55.703 59.781,55.703C60.225,55.703 60.402,55.343 60.402,55.004L60.402,54.912ZM60.681,55.83C60.462,55.83 60.402,55.671 60.402,55.484C60.307,55.735 60.038,55.865 59.767,55.865C59.424,55.865 59.16,55.66 59.16,55.322C59.16,55.007 59.403,54.82 59.753,54.796L60.402,54.749L60.402,54.577C60.402,54.284 60.204,54.174 59.936,54.174C59.657,54.174 59.445,54.301 59.428,54.562L59.251,54.562C59.276,54.206 59.555,54.008 59.936,54.008C60.176,54.008 60.437,54.089 60.533,54.333C60.575,54.443 60.578,54.556 60.578,54.672L60.578,55.477C60.578,55.597 60.596,55.667 60.716,55.667C60.737,55.667 60.748,55.667 60.765,55.664L60.765,55.819C60.723,55.826 60.723,55.83 60.681,55.83" style="fill:white;fill-rule:nonzero;"/>
    </g>
    <g transform="matrix(4.16667,0,0,4.16667,-159.809,-117.725)">
        <path d="M61.705,55.84C61.479,55.84 61.352,55.724 61.352,55.466L61.352,53.271L61.528,53.271L61.528,55.459C61.528,55.579 61.564,55.671 61.712,55.671C61.783,55.671 61.814,55.671 61.864,55.664L61.864,55.819C61.825,55.83 61.779,55.84 61.705,55.84" style="fill:white;fill-rule:nonzero;"/>
    </g>
    <g transform="matrix(4.16667,0,0,4.16667,-159.809,-117.725)">
        <path d="M63.03,54.174C62.667,54.174 62.437,54.467 62.437,54.816L63.605,54.816C63.598,54.481 63.39,54.174 63.03,54.174M63.782,54.978L62.434,54.978C62.437,55.183 62.504,55.374 62.617,55.508C62.716,55.625 62.853,55.695 63.044,55.695C63.199,55.695 63.333,55.638 63.429,55.54C63.492,55.473 63.542,55.395 63.563,55.289L63.746,55.289C63.722,55.441 63.648,55.564 63.549,55.66C63.422,55.787 63.245,55.864 63.044,55.864C62.79,55.864 62.61,55.759 62.483,55.614C62.338,55.444 62.257,55.212 62.257,54.944C62.257,54.721 62.292,54.502 62.43,54.315C62.578,54.114 62.783,54.008 63.03,54.008C63.507,54.008 63.785,54.418 63.785,54.862C63.785,54.904 63.782,54.936 63.782,54.978" style="fill:white;fill-rule:nonzero;"/>
    </g>
    <g transform="matrix(4.16667,0,0,4.16667,-159.809,-117.725)">
        <path d="M65.585,55.653C65.458,55.794 65.246,55.865 65.013,55.865C64.773,55.865 64.568,55.791 64.434,55.639C64.335,55.526 64.293,55.427 64.286,55.283L64.466,55.283C64.477,55.388 64.523,55.48 64.597,55.554C64.699,55.653 64.844,55.695 65.013,55.695C65.197,55.695 65.341,55.653 65.43,55.565C65.493,55.501 65.525,55.441 65.525,55.339C65.525,55.18 65.412,55.046 65.2,55.018L64.858,54.972C64.713,54.954 64.558,54.909 64.459,54.796C64.396,54.721 64.36,54.63 64.36,54.517C64.36,54.375 64.42,54.259 64.512,54.174C64.639,54.058 64.812,54.008 64.996,54.008C65.207,54.008 65.408,54.075 65.528,54.217C65.61,54.312 65.659,54.428 65.663,54.541L65.486,54.541C65.479,54.485 65.454,54.396 65.398,54.33C65.317,54.234 65.179,54.174 64.996,54.174C64.858,54.174 64.756,54.199 64.678,54.255C64.59,54.319 64.54,54.404 64.54,54.499C64.54,54.647 64.614,54.76 64.883,54.796L65.218,54.841C65.55,54.887 65.705,55.113 65.705,55.328C65.705,55.459 65.663,55.565 65.585,55.653" style="fill:white;fill-rule:nonzero;"/>
    </g>
    <g transform="matrix(4.16667,0,0,4.16667,-159.809,-117.725)">
        <path d="M68.099,53.489L67.368,53.489L67.368,54.583L68.099,54.583C68.512,54.583 68.752,54.392 68.752,54.036C68.752,53.68 68.512,53.489 68.099,53.489M68.424,54.707L68.932,55.819L68.731,55.819L68.24,54.752L67.368,54.752L67.368,55.819L67.185,55.819L67.185,53.316L68.099,53.316C68.646,53.316 68.942,53.602 68.942,54.036C68.942,54.365 68.738,54.622 68.424,54.707" style="fill:white;fill-rule:nonzero;"/>
    </g>
    <g transform="matrix(4.16667,0,0,4.16667,-159.809,-117.725)">
        <path d="M70.181,54.174C69.817,54.174 69.588,54.467 69.588,54.816L70.756,54.816C70.749,54.481 70.541,54.174 70.181,54.174M70.933,54.978L69.585,54.978C69.588,55.183 69.655,55.374 69.768,55.508C69.867,55.625 70.004,55.695 70.195,55.695C70.35,55.695 70.484,55.638 70.58,55.54C70.643,55.473 70.693,55.395 70.714,55.289L70.897,55.289C70.873,55.441 70.799,55.564 70.7,55.66C70.573,55.787 70.396,55.864 70.195,55.864C69.941,55.864 69.761,55.759 69.634,55.614C69.489,55.444 69.408,55.212 69.408,54.944C69.408,54.721 69.443,54.502 69.581,54.315C69.729,54.114 69.934,54.008 70.181,54.008C70.658,54.008 70.936,54.418 70.936,54.862C70.936,54.904 70.933,54.936 70.933,54.978" style="fill:white;fill-rule:nonzero;"/>
    </g>
    <g transform="matrix(4.16667,0,0,4.16667,-159.809,-117.725)">
        <path d="M72.188,53.408C71.966,53.408 71.853,53.524 71.853,53.75L71.853,54.054L72.407,54.054L72.407,54.216L71.853,54.216L71.853,55.819L71.676,55.819L71.676,54.216L71.323,54.216L71.323,54.054L71.676,54.054L71.676,53.743C71.676,53.475 71.842,53.249 72.174,53.249C72.276,53.249 72.357,53.256 72.442,53.27L72.442,53.429C72.371,53.418 72.29,53.408 72.188,53.408" style="fill:white;fill-rule:nonzero;"/>
    </g>
    <g transform="matrix(4.16667,0,0,4.16667,-159.809,-117.725)">
        <path d="M73.534,54.174C73.171,54.174 72.941,54.467 72.941,54.816L74.109,54.816C74.102,54.481 73.894,54.174 73.534,54.174M74.286,54.978L72.938,54.978C72.941,55.183 73.008,55.374 73.121,55.508C73.22,55.625 73.357,55.695 73.548,55.695C73.703,55.695 73.837,55.638 73.933,55.54C73.996,55.473 74.046,55.395 74.067,55.289L74.25,55.289C74.226,55.441 74.152,55.564 74.053,55.66C73.926,55.787 73.749,55.864 73.548,55.864C73.294,55.864 73.114,55.759 72.987,55.614C72.842,55.444 72.761,55.212 72.761,54.944C72.761,54.721 72.796,54.502 72.934,54.315C73.082,54.114 73.287,54.008 73.534,54.008C74.011,54.008 74.289,54.418 74.289,54.862C74.289,54.904 74.286,54.936 74.286,54.978" style="fill:white;fill-rule:nonzero;"/>
    </g>
    <g transform="matrix(4.16667,0,0,4.16667,-159.809,-117.725)">
        <path d="M75.661,54.206C75.22,54.206 75.1,54.601 75.1,54.972L75.1,55.819L74.923,55.819L74.923,54.054L75.079,54.054L75.1,54.411C75.178,54.167 75.414,54.037 75.661,54.037C75.718,54.037 75.778,54.037 75.834,54.047L75.834,54.224C75.778,54.209 75.718,54.206 75.661,54.206" style="fill:white;fill-rule:nonzero;"/>
    </g>
    <g transform="matrix(4.16667,0,0,4.16667,-159.809,-117.725)">
        <path d="M76.984,54.174C76.62,54.174 76.391,54.467 76.391,54.816L77.559,54.816C77.552,54.481 77.344,54.174 76.984,54.174M77.736,54.978L76.388,54.978C76.391,55.183 76.458,55.374 76.571,55.508C76.67,55.625 76.807,55.695 76.998,55.695C77.153,55.695 77.287,55.638 77.383,55.54C77.446,55.473 77.496,55.395 77.517,55.289L77.7,55.289C77.676,55.441 77.602,55.564 77.503,55.66C77.376,55.787 77.199,55.864 76.998,55.864C76.744,55.864 76.564,55.759 76.437,55.614C76.292,55.444 76.211,55.212 76.211,54.944C76.211,54.721 76.246,54.502 76.384,54.315C76.532,54.114 76.737,54.008 76.984,54.008C77.461,54.008 77.739,54.418 77.739,54.862C77.739,54.904 77.736,54.936 77.736,54.978" style="fill:white;fill-rule:nonzero;"/>
    </g>
    <g transform="matrix(4.16667,0,0,4.16667,-159.809,-117.725)">
        <path d="M79.591,55.819L79.591,54.665C79.591,54.358 79.457,54.181 79.136,54.181C78.702,54.181 78.55,54.555 78.55,54.937L78.55,55.819L78.373,55.819L78.373,54.054L78.529,54.054L78.55,54.375C78.649,54.153 78.899,54.008 79.146,54.008C79.552,54.008 79.768,54.259 79.768,54.654L79.768,55.819L79.591,55.819Z" style="fill:white;fill-rule:nonzero;"/>
    </g>
    <g transform="matrix(4.16667,0,0,4.16667,-159.809,-117.725)">
        <path d="M80.374,55.819L80.374,55.622L81.504,54.22L80.374,54.22L80.374,54.054L81.694,54.054L81.694,54.249L80.565,55.65L81.704,55.65L81.704,55.819L80.374,55.819Z" style="fill:white;fill-rule:nonzero;"/>
    </g>
    <g transform="matrix(4.16667,0,0,4.16667,-159.809,-117.725)">
        <path d="M83.424,54.305C83.336,54.227 83.223,54.181 83.075,54.181C82.919,54.181 82.803,54.238 82.715,54.322C82.556,54.478 82.489,54.693 82.489,54.937C82.489,55.198 82.549,55.403 82.711,55.554C82.799,55.639 82.919,55.692 83.082,55.692C83.247,55.692 83.367,55.632 83.459,55.537C83.597,55.388 83.657,55.162 83.657,54.937C83.657,54.686 83.586,54.449 83.424,54.305M83.562,55.681C83.445,55.794 83.286,55.865 83.082,55.865C82.831,55.865 82.587,55.724 82.493,55.522L82.493,56.525L82.316,56.525L82.316,54.054L82.471,54.054L82.493,54.365C82.587,54.146 82.842,54.008 83.078,54.008C83.279,54.008 83.431,54.072 83.548,54.174C83.745,54.347 83.837,54.63 83.837,54.933C83.837,55.222 83.749,55.505 83.562,55.681" style="fill:white;fill-rule:nonzero;"/>
    </g>
    <g transform="matrix(4.16667,0,0,4.16667,-159.809,-117.725)">
        <path d="M85.222,54.206C84.781,54.206 84.661,54.601 84.661,54.972L84.661,55.819L84.484,55.819L84.484,54.054L84.639,54.054L84.661,54.411C84.738,54.167 84.975,54.037 85.222,54.037C85.279,54.037 85.338,54.037 85.395,54.047L85.395,54.224C85.338,54.209 85.279,54.206 85.222,54.206" style="fill:white;fill-rule:nonzero;"/>
    </g>
    <g transform="matrix(4.16667,0,0,4.16667,-159.809,-117.725)">
        <path d="M86.928,54.337C86.836,54.242 86.709,54.182 86.54,54.182C86.37,54.182 86.243,54.242 86.152,54.337C85.993,54.503 85.954,54.708 85.954,54.937C85.954,55.166 85.993,55.371 86.152,55.537C86.243,55.632 86.37,55.692 86.54,55.692C86.709,55.692 86.836,55.632 86.928,55.537C87.087,55.371 87.126,55.166 87.126,54.937C87.126,54.708 87.087,54.503 86.928,54.337M87.055,55.653C86.932,55.777 86.759,55.865 86.54,55.865C86.321,55.865 86.148,55.777 86.025,55.653C85.841,55.47 85.774,55.237 85.774,54.937C85.774,54.637 85.841,54.404 86.025,54.221C86.148,54.097 86.321,54.009 86.54,54.009C86.759,54.009 86.932,54.097 87.055,54.221C87.239,54.404 87.306,54.637 87.306,54.937C87.306,55.237 87.239,55.47 87.055,55.653" style="fill:white;fill-rule:nonzero;"/>
    </g>
    <g transform="matrix(4.16667,0,0,4.16667,-159.809,-117.725)">
        <path d="M87.968,53.317L88.211,53.317L88.211,53.564L87.968,53.564L87.968,53.317ZM87.727,56.55C87.625,56.55 87.569,56.539 87.484,56.525L87.484,56.363C87.554,56.373 87.611,56.384 87.713,56.384C87.922,56.384 88.006,56.256 88.006,56.038L88.006,54.054L88.183,54.054L88.183,56.045C88.183,56.338 88.059,56.55 87.727,56.55" style="fill:white;fill-rule:nonzero;"/>
    </g>
    <g transform="matrix(4.16667,0,0,4.16667,-159.809,-117.725)">
        <path d="M89.603,54.174C89.24,54.174 89.01,54.467 89.01,54.816L90.179,54.816C90.172,54.481 89.963,54.174 89.603,54.174M90.355,54.978L89.007,54.978C89.01,55.183 89.077,55.374 89.19,55.508C89.289,55.625 89.427,55.695 89.618,55.695C89.773,55.695 89.907,55.638 90.002,55.54C90.066,55.473 90.115,55.395 90.136,55.289L90.319,55.289C90.295,55.441 90.221,55.564 90.122,55.66C89.995,55.787 89.818,55.864 89.618,55.864C89.363,55.864 89.183,55.759 89.056,55.614C88.912,55.444 88.83,55.212 88.83,54.944C88.83,54.721 88.866,54.502 89.003,54.315C89.151,54.114 89.356,54.008 89.603,54.008C90.08,54.008 90.358,54.418 90.358,54.862C90.358,54.904 90.355,54.936 90.355,54.978" style="fill:white;fill-rule:nonzero;"/>
    </g>
    <g transform="matrix(4.16667,0,0,4.16667,-159.809,-117.725)">
        <path d="M92.256,55.819L91.634,54.877L91.172,55.381L91.172,55.819L90.992,55.819L90.992,53.271L91.172,53.271L91.172,55.127L92.164,54.054L92.387,54.054L91.762,54.735L92.471,55.819L92.256,55.819Z" style="fill:white;fill-rule:nonzero;"/>
    </g>
    <g transform="matrix(4.16667,0,0,4.16667,-159.809,-117.725)">
        <path d="M93.643,55.844C93.315,55.844 93.188,55.636 93.188,55.329L93.188,54.217L92.834,54.217L92.834,54.055L93.188,54.055L93.188,53.567L93.364,53.525L93.364,54.055L93.911,54.055L93.911,54.217L93.364,54.217L93.364,55.322C93.364,55.53 93.421,55.678 93.656,55.678C93.751,55.678 93.84,55.664 93.936,55.647L93.936,55.802C93.837,55.823 93.742,55.844 93.643,55.844" style="fill:white;fill-rule:nonzero;"/>
    </g>
    <g transform="matrix(4.16667,0,0,4.16667,-159.809,-117.725)">
        <rect x="46.252" y="58.172" width="0.463" height="2.503" style="fill:white;fill-rule:nonzero;"/>
    </g>
    <g transform="matrix(4.16667,0,0,4.16667,-159.809,-117.725)">
        <path d="M48.343,58.596L48.343,60.675L47.888,60.675L47.888,58.596L47.146,58.596L47.146,58.172L49.084,58.172L49.084,58.596L48.343,58.596Z" style="fill:white;fill-rule:nonzero;"/>
    </g>
    <g transform="matrix(4.16667,0,0,4.16667,-159.809,-117.725)">
        <rect x="49.175" y="59.39" width="1.211" height="0.395" style="fill:white;fill-rule:nonzero;"/>
    </g>
    <g transform="matrix(4.16667,0,0,4.16667,-159.809,-117.725)">
        <path d="M52.592,60.452C52.401,60.643 52.109,60.72 51.801,60.72C51.537,60.72 51.258,60.65 51.053,60.463C50.905,60.329 50.792,60.117 50.792,59.88L51.258,59.88C51.258,60.004 51.314,60.113 51.389,60.187C51.494,60.293 51.664,60.321 51.809,60.321C51.982,60.321 52.147,60.286 52.243,60.187C52.299,60.127 52.342,60.067 52.342,59.947C52.342,59.764 52.2,59.679 52.045,59.651C51.876,59.619 51.657,59.612 51.491,59.584C51.145,59.527 50.856,59.301 50.856,58.885C50.856,58.687 50.944,58.522 51.074,58.391C51.24,58.228 51.516,58.126 51.809,58.126C52.077,58.126 52.338,58.211 52.508,58.37C52.656,58.511 52.758,58.694 52.761,58.903L52.296,58.903C52.292,58.814 52.246,58.719 52.186,58.656C52.105,58.571 51.939,58.522 51.805,58.522C51.664,58.522 51.502,58.553 51.399,58.659C51.346,58.716 51.314,58.779 51.314,58.871C51.314,59.033 51.42,59.118 51.569,59.143C51.727,59.167 51.95,59.185 52.112,59.206C52.486,59.259 52.8,59.503 52.8,59.93C52.8,60.163 52.716,60.329 52.592,60.452" style="fill:white;fill-rule:nonzero;"/>
    </g>
    <g transform="matrix(4.16667,0,0,4.16667,-159.809,-117.725)">
        <path d="M53.303,58.585L53.776,58.585L53.776,58.13L53.303,58.13L53.303,58.585ZM53.318,60.675L53.766,60.675L53.766,58.839L53.318,58.839L53.318,60.675Z" style="fill:white;fill-rule:nonzero;"/>
    </g>
    <g transform="matrix(4.16667,0,0,4.16667,-159.809,-117.725)">
        <path d="M55.766,60.424C55.639,60.583 55.417,60.713 55.138,60.713C54.859,60.713 54.626,60.579 54.499,60.424C54.361,60.251 54.298,60.021 54.298,59.753C54.298,59.485 54.361,59.256 54.499,59.083C54.626,58.927 54.859,58.793 55.138,58.793C55.417,58.793 55.639,58.924 55.766,59.083C55.851,59.192 55.9,59.337 55.907,59.482L55.473,59.482C55.469,59.414 55.448,59.358 55.42,59.312C55.367,59.231 55.272,59.174 55.138,59.174C55.018,59.174 54.929,59.224 54.87,59.287C54.764,59.404 54.746,59.58 54.746,59.753C54.746,59.926 54.764,60.099 54.87,60.216C54.929,60.279 55.018,60.332 55.138,60.332C55.272,60.332 55.367,60.276 55.42,60.194C55.448,60.149 55.469,60.092 55.473,60.025L55.907,60.025C55.9,60.17 55.851,60.315 55.766,60.424" style="fill:white;fill-rule:nonzero;"/>
    </g>
    <g transform="matrix(4.16667,0,0,4.16667,-159.809,-117.725)">
        <path d="M57.547,60.675L57.547,59.542C57.547,59.33 57.476,59.2 57.243,59.2C56.979,59.2 56.866,59.482 56.866,59.708L56.866,60.675L56.424,60.675L56.424,58.127L56.866,58.127L56.866,59.034C56.972,58.879 57.176,58.794 57.367,58.794C57.759,58.794 57.988,59.073 57.988,59.45L57.988,60.675L57.547,60.675Z" style="fill:white;fill-rule:nonzero;"/>
    </g>
    <g transform="matrix(4.16667,0,0,4.16667,-159.809,-117.725)">
        <path d="M59.627,59.252C59.567,59.189 59.475,59.146 59.348,59.146C59.214,59.146 59.105,59.203 59.041,59.287C58.978,59.369 58.949,59.453 58.946,59.574L59.74,59.574C59.736,59.436 59.698,59.33 59.627,59.252M60.178,59.895L58.949,59.895C58.946,60.036 58.995,60.17 59.084,60.255C59.147,60.315 59.235,60.368 59.355,60.368C59.482,60.368 59.56,60.343 59.624,60.279C59.662,60.24 59.694,60.191 59.712,60.124L60.135,60.124C60.125,60.234 60.051,60.378 59.98,60.463C59.825,60.646 59.595,60.72 59.362,60.72C59.112,60.72 58.928,60.632 58.784,60.494C58.6,60.318 58.501,60.06 58.501,59.76C58.501,59.468 58.589,59.206 58.766,59.026C58.903,58.885 59.101,58.793 59.352,58.793C59.624,58.793 59.871,58.903 60.022,59.132C60.157,59.333 60.188,59.542 60.181,59.771C60.181,59.771 60.178,59.856 60.178,59.895" style="fill:white;fill-rule:nonzero;"/>
    </g>
    <g transform="matrix(4.16667,0,0,4.16667,-159.809,-117.725)">
        <path d="M61.631,59.231C61.32,59.231 61.158,59.453 61.158,59.75L61.158,60.675L60.713,60.675L60.713,58.839L61.087,58.839L61.126,59.115C61.211,58.903 61.43,58.815 61.645,58.815C61.691,58.815 61.737,58.818 61.783,58.825L61.783,59.249C61.733,59.238 61.68,59.231 61.631,59.231" style="fill:white;fill-rule:nonzero;"/>
    </g>
    <g transform="matrix(4.16667,0,0,4.16667,-159.809,-117.725)">
        <path d="M63.347,60.675L63.347,59.542C63.347,59.33 63.276,59.2 63.043,59.2C62.779,59.2 62.666,59.482 62.666,59.708L62.666,60.675L62.224,60.675L62.224,58.127L62.666,58.127L62.666,59.034C62.771,58.879 62.976,58.794 63.167,58.794C63.559,58.794 63.788,59.073 63.788,59.45L63.788,60.675L63.347,60.675Z" style="fill:white;fill-rule:nonzero;"/>
    </g>
    <g transform="matrix(4.16667,0,0,4.16667,-159.809,-117.725)">
        <path d="M65.428,59.252C65.368,59.189 65.276,59.146 65.149,59.146C65.015,59.146 64.906,59.203 64.842,59.287C64.779,59.369 64.75,59.453 64.747,59.574L65.541,59.574C65.537,59.436 65.499,59.33 65.428,59.252M65.979,59.895L64.75,59.895C64.747,60.036 64.796,60.17 64.885,60.255C64.948,60.315 65.036,60.368 65.156,60.368C65.283,60.368 65.361,60.343 65.425,60.279C65.463,60.24 65.495,60.191 65.513,60.124L65.936,60.124C65.926,60.234 65.852,60.378 65.781,60.463C65.626,60.646 65.396,60.72 65.163,60.72C64.913,60.72 64.729,60.632 64.585,60.494C64.401,60.318 64.302,60.06 64.302,59.76C64.302,59.468 64.39,59.206 64.567,59.026C64.704,58.885 64.902,58.793 65.153,58.793C65.425,58.793 65.672,58.903 65.823,59.132C65.958,59.333 65.989,59.542 65.982,59.771C65.982,59.771 65.979,59.856 65.979,59.895" style="fill:white;fill-rule:nonzero;"/>
    </g>
    <g transform="matrix(4.16667,0,0,4.16667,-159.809,-117.725)">
        <path d="M66.499,58.585L66.972,58.585L66.972,58.13L66.499,58.13L66.499,58.585ZM66.513,60.675L66.961,60.675L66.961,58.839L66.513,58.839L66.513,60.675Z" style="fill:white;fill-rule:nonzero;"/>
    </g>
    <g transform="matrix(4.16667,0,0,4.16667,-159.809,-117.725)">
        <path d="M68.291,60.699C67.92,60.699 67.737,60.487 67.737,60.134L67.737,59.203L67.402,59.203L67.402,58.839L67.737,58.839L67.737,58.373L68.178,58.264L68.178,58.839L68.641,58.839L68.641,59.203L68.178,59.203L68.178,60.095C68.178,60.237 68.242,60.297 68.383,60.297C68.475,60.297 68.549,60.293 68.669,60.279L68.669,60.65C68.545,60.681 68.422,60.699 68.291,60.699" style="fill:white;fill-rule:nonzero;"/>
    </g>
    <g transform="matrix(4.16667,0,0,4.16667,-159.809,-117.725)">
        <path d="M70.022,58.585L70.495,58.585L70.495,58.13L70.022,58.13L70.022,58.585ZM70.035,60.675L70.483,60.675L70.483,58.839L70.035,58.839L70.035,60.675Z" style="fill:white;fill-rule:nonzero;"/>
    </g>
    <g transform="matrix(4.16667,0,0,4.16667,-159.809,-117.725)">
        <path d="M72.214,60.675L72.214,59.549C72.214,59.334 72.143,59.203 71.91,59.203C71.755,59.203 71.653,59.302 71.593,59.436C71.529,59.581 71.533,59.771 71.533,59.927L71.533,60.675L71.091,60.675L71.091,58.839L71.462,58.839L71.494,59.076C71.603,58.882 71.822,58.794 72.034,58.794C72.426,58.794 72.655,59.069 72.655,59.45L72.655,60.675L72.214,60.675Z" style="fill:white;fill-rule:nonzero;"/>
    </g>
    <g transform="matrix(4.16667,0,0,4.16667,-159.809,-117.725)">
        <rect x="74.075" y="58.172" width="0.463" height="2.503" style="fill:white;fill-rule:nonzero;"/>
    </g>
    <g transform="matrix(4.16667,0,0,4.16667,-159.809,-117.725)">
        <path d="M76.308,60.675L76.308,59.549C76.308,59.334 76.238,59.203 76.005,59.203C75.849,59.203 75.747,59.302 75.687,59.436C75.623,59.581 75.627,59.771 75.627,59.927L75.627,60.675L75.186,60.675L75.186,58.839L75.556,58.839L75.588,59.076C75.698,58.882 75.916,58.794 76.128,58.794C76.52,58.794 76.749,59.069 76.749,59.45L76.749,60.675L76.308,60.675Z" style="fill:white;fill-rule:nonzero;"/>
    </g>
    <g transform="matrix(4.16667,0,0,4.16667,-159.809,-117.725)">
        <path d="M78.129,59.164C77.992,59.164 77.896,59.227 77.833,59.308C77.741,59.429 77.717,59.595 77.717,59.753C77.717,59.912 77.741,60.081 77.833,60.202C77.896,60.283 77.992,60.346 78.129,60.346C78.476,60.346 78.545,60.018 78.545,59.753C78.545,59.489 78.476,59.164 78.129,59.164M78.584,60.675L78.557,60.473C78.447,60.643 78.242,60.717 78.042,60.717C77.857,60.717 77.705,60.653 77.593,60.562C77.375,60.381 77.268,60.106 77.268,59.76C77.268,59.4 77.378,59.122 77.596,58.942C77.709,58.85 77.857,58.793 78.045,58.793C78.277,58.793 78.447,58.871 78.524,58.966L78.524,58.126L78.967,58.126L78.967,60.675L78.584,60.675Z" style="fill:white;fill-rule:nonzero;"/>
    </g>
    <g transform="matrix(4.16667,0,0,4.16667,-159.809,-117.725)">
        <path d="M80.785,60.675L80.754,60.435C80.665,60.615 80.46,60.721 80.228,60.721C79.836,60.721 79.592,60.456 79.592,60.065L79.592,58.839L80.033,58.839L80.033,59.965C80.033,60.181 80.118,60.315 80.351,60.315C80.453,60.315 80.524,60.276 80.577,60.223C80.683,60.124 80.711,59.959 80.711,59.81L80.711,58.839L81.152,58.839L81.152,60.675L80.785,60.675Z" style="fill:white;fill-rule:nonzero;"/>
    </g>
    <g transform="matrix(4.16667,0,0,4.16667,-159.809,-117.725)">
        <path d="M83.085,60.509C82.937,60.657 82.707,60.721 82.456,60.721C82.224,60.721 82.015,60.654 81.864,60.509C81.758,60.407 81.67,60.255 81.67,60.082L82.083,60.082C82.083,60.163 82.125,60.252 82.181,60.297C82.252,60.354 82.333,60.378 82.46,60.378C82.608,60.378 82.834,60.347 82.834,60.146C82.834,60.04 82.764,59.969 82.651,59.952C82.488,59.927 82.305,59.916 82.143,59.881C81.892,59.828 81.722,59.623 81.722,59.39C81.722,59.203 81.8,59.073 81.909,58.977C82.044,58.861 82.238,58.794 82.467,58.794C82.686,58.794 82.908,58.864 83.043,59.009C83.141,59.115 83.205,59.252 83.205,59.387L82.785,59.387C82.785,59.316 82.753,59.26 82.711,59.214C82.658,59.161 82.562,59.129 82.471,59.129C82.407,59.129 82.347,59.129 82.28,59.157C82.203,59.189 82.139,59.256 82.139,59.352C82.139,59.482 82.252,59.521 82.351,59.535C82.517,59.556 82.562,59.56 82.742,59.588C83.032,59.634 83.244,59.817 83.244,60.107C83.244,60.283 83.18,60.414 83.085,60.509" style="fill:white;fill-rule:nonzero;"/>
    </g>
    <g transform="matrix(4.16667,0,0,4.16667,-159.809,-117.725)">
        <path d="M84.477,60.699C84.107,60.699 83.923,60.487 83.923,60.134L83.923,59.203L83.588,59.203L83.588,58.839L83.923,58.839L83.923,58.373L84.364,58.264L84.364,58.839L84.827,58.839L84.827,59.203L84.364,59.203L84.364,60.095C84.364,60.237 84.428,60.297 84.569,60.297C84.661,60.297 84.735,60.293 84.855,60.279L84.855,60.65C84.731,60.681 84.608,60.699 84.477,60.699" style="fill:white;fill-rule:nonzero;"/>
    </g>
    <g transform="matrix(4.16667,0,0,4.16667,-159.809,-117.725)">
        <path d="M86.267,59.231C85.957,59.231 85.794,59.453 85.794,59.75L85.794,60.675L85.349,60.675L85.349,58.839L85.724,58.839L85.762,59.115C85.847,58.903 86.066,58.815 86.281,58.815C86.327,58.815 86.373,58.818 86.419,58.825L86.419,59.249C86.369,59.238 86.316,59.231 86.267,59.231" style="fill:white;fill-rule:nonzero;"/>
    </g>
    <g transform="matrix(4.16667,0,0,4.16667,-159.809,-117.725)">
        <path d="M86.85,58.585L87.323,58.585L87.323,58.13L86.85,58.13L86.85,58.585ZM86.864,60.675L87.312,60.675L87.312,58.839L86.864,58.839L86.864,60.675Z" style="fill:white;fill-rule:nonzero;"/>
    </g>
    <g transform="matrix(4.16667,0,0,4.16667,-159.809,-117.725)">
        <path d="M88.97,59.252C88.91,59.189 88.819,59.146 88.691,59.146C88.557,59.146 88.448,59.203 88.384,59.287C88.321,59.369 88.292,59.453 88.289,59.574L89.083,59.574C89.079,59.436 89.041,59.33 88.97,59.252M89.521,59.895L88.292,59.895C88.289,60.036 88.338,60.17 88.427,60.255C88.49,60.315 88.578,60.368 88.699,60.368C88.826,60.368 88.903,60.343 88.967,60.279C89.005,60.24 89.037,60.191 89.055,60.124L89.479,60.124C89.468,60.234 89.394,60.378 89.323,60.463C89.168,60.646 88.939,60.72 88.706,60.72C88.455,60.72 88.271,60.632 88.127,60.494C87.943,60.318 87.844,60.06 87.844,59.76C87.844,59.468 87.933,59.206 88.109,59.026C88.246,58.885 88.444,58.793 88.695,58.793C88.967,58.793 89.214,58.903 89.366,59.132C89.5,59.333 89.531,59.542 89.524,59.771C89.524,59.771 89.521,59.856 89.521,59.895" style="fill:white;fill-rule:nonzero;"/>
    </g>
    <g transform="matrix(4.16667,0,0,4.16667,-159.809,-117.725)">
        <path d="M92.173,60.181L92.173,60.675L91.732,60.675L91.732,60.181L90.638,60.181L90.638,59.765L91.538,58.222L92.018,58.222L91.103,59.782L91.732,59.782L91.732,59.207L92.173,59.207L92.173,59.782L92.483,59.782L92.483,60.181L92.173,60.181Z" style="fill:white;fill-rule:nonzero;"/>
    </g>
    <g transform="matrix(4.16667,0,0,4.16667,-159.809,-117.725)">
        <rect x="92.934" y="60.124" width="0.536" height="0.551" style="fill:white;fill-rule:nonzero;"/>
    </g>
    <g transform="matrix(4.16667,0,0,4.16667,-159.809,-117.725)">
        <path d="M94.696,58.582C94.24,58.582 94.279,59.129 94.279,59.447C94.279,59.764 94.24,60.312 94.696,60.312C95.151,60.312 95.112,59.764 95.112,59.447C95.112,59.129 95.151,58.582 94.696,58.582M95.268,60.502C95.141,60.625 94.96,60.721 94.696,60.721C94.431,60.721 94.251,60.625 94.124,60.502C93.87,60.258 93.831,59.849 93.831,59.447C93.831,59.044 93.87,58.635 94.124,58.391C94.251,58.268 94.431,58.172 94.696,58.172C94.96,58.172 95.141,58.268 95.268,58.391C95.522,58.635 95.561,59.044 95.561,59.447C95.561,59.849 95.522,60.258 95.268,60.502" style="fill:white;fill-rule:nonzero;"/>
    </g>
    <g transform="matrix(4.16667,0,0,4.16667,-159.809,-117.725)">
        <path d="M94.558,38.338C94.561,38.784 94.495,39.219 94.366,39.645C94.283,39.921 94.158,40.161 94.011,40.383C93.75,40.777 93.401,41.093 92.939,41.297C92.388,41.539 91.823,41.649 91.256,41.647C90.771,41.646 90.284,41.564 89.804,41.402C88.788,41.059 88.188,40.3 87.997,39.241C87.938,38.919 87.911,38.588 87.909,38.26C87.899,37.015 87.894,35.769 87.911,34.523C87.916,34.136 87.963,33.743 88.046,33.364C88.315,32.135 89.256,31.424 90.444,31.236C91.049,31.14 91.656,31.144 92.256,31.278C92.275,31.282 92.292,31.29 92.312,31.295C92.893,31.433 93.37,31.691 93.73,32.059C94.118,32.456 94.374,32.978 94.483,33.619C94.528,33.891 94.549,34.171 94.553,34.446C94.563,35.095 94.557,35.744 94.557,36.392C94.557,37.041 94.553,37.69 94.558,38.338M97.735,36.395C97.735,35.839 97.733,35.282 97.735,34.726C97.738,34.023 97.667,33.328 97.503,32.646C97.026,30.66 95.851,29.367 94.046,28.703C93.827,28.622 93.602,28.546 93.364,28.484C92.714,28.316 92.047,28.266 91.376,28.258C91.341,28.258 91.306,28.259 91.272,28.259C89.984,28.254 88.745,28.454 87.588,29.076C86.395,29.718 85.609,30.699 85.16,31.955C84.844,32.844 84.719,33.771 84.725,34.716C84.731,35.849 84.728,36.965 84.726,38.115C84.723,38.903 84.824,39.676 85.04,40.432C85.489,42.005 86.433,43.161 87.934,43.847C88.431,44.075 88.939,44.265 89.482,44.35C89.723,44.388 89.908,44.413 90.078,44.432C90.291,44.457 90.479,44.473 90.706,44.491C91.784,44.574 92.849,44.481 93.876,44.138C93.951,44.113 94.021,44.081 94.094,44.053C94.833,43.778 95.508,43.386 96.07,42.804C97.115,41.719 97.58,40.391 97.689,38.926C97.75,38.085 97.741,36.395 97.735,36.395" style="fill:white;fill-rule:nonzero;"/>
    </g>
    <g transform="matrix(4.16667,0,0,4.16667,-159.809,-117.725)">
        <path d="M45.781,28.255C45.532,28.26 45.309,28.301 45.114,28.374C44.509,28.599 44.17,29.138 44.171,29.914C44.173,32.066 44.172,34.218 44.172,36.369C44.172,38.553 44.174,40.735 44.17,42.918C44.169,43.727 44.626,44.266 45.245,44.45C45.608,44.558 46.026,44.544 46.442,44.39C47.081,44.154 47.348,43.612 47.349,42.948C47.349,42.622 47.349,42.296 47.349,41.97C47.352,37.92 47.349,33.869 47.353,29.82C47.353,29.431 47.235,29.096 47.036,28.833C46.76,28.467 46.321,28.246 45.781,28.255" style="fill:white;fill-rule:nonzero;"/>
    </g>
    <g transform="matrix(4.16667,0,0,4.16667,-159.809,-117.725)">
        <path d="M81.007,36.209C81.007,35.75 81.006,35.291 81.007,34.832C81.007,34.612 81.006,34.393 81.006,34.174C81.007,33.279 80.874,32.406 80.569,31.568C80.204,30.565 79.599,29.733 78.668,29.175C78.468,29.056 78.264,28.953 78.057,28.859C77.27,28.504 76.431,28.324 75.556,28.277C74.15,28.2 72.759,28.311 71.389,28.65C71.161,28.707 70.933,28.764 70.706,28.824C70.308,28.93 69.915,29.05 69.539,29.23C69.145,29.42 68.863,29.709 68.722,30.111C68.635,30.358 68.58,30.63 68.579,30.891C68.572,31.97 68.571,33.05 68.571,34.129C68.571,34.666 68.572,35.203 68.572,35.74C68.572,36.123 68.573,36.505 68.573,36.887L68.569,36.887C68.569,38.925 68.571,40.965 68.567,43.005C68.566,43.306 68.65,43.57 68.806,43.821C69.092,44.283 69.523,44.475 70.045,44.513C70.897,44.575 71.444,44.072 71.646,43.498C71.704,43.334 71.738,43.165 71.737,43.001C71.727,39.322 71.738,31.843 71.73,31.782C71.713,31.64 71.788,31.579 71.914,31.548C73.12,31.244 74.339,31.067 75.583,31.236C76.683,31.385 77.466,32.086 77.714,33.148C77.793,33.486 77.839,33.84 77.84,34.187C77.848,36.889 77.845,39.593 77.841,42.295C77.84,42.529 77.841,42.762 77.841,42.995C77.84,43.295 77.919,43.559 78.073,43.812C78.363,44.289 78.807,44.48 79.338,44.514C80.432,44.584 81.011,43.727 81.01,43.012C81.003,40.744 81.005,38.476 81.007,36.209" style="fill:white;fill-rule:nonzero;"/>
    </g>
    <g transform="matrix(4.16667,0,0,4.16667,-159.809,-117.725)">
        <path d="M62.332,28.267C62.123,28.284 61.929,28.338 61.756,28.422C61.25,28.666 60.923,29.169 60.923,29.776L60.923,30.403C60.923,33.109 60.922,37.233 60.923,39.464C60.923,40.405 60.924,41.008 60.926,41.026C60.938,41.15 60.881,41.217 60.762,41.242C60.591,41.278 60.421,41.32 60.25,41.356C59.238,41.566 58.22,41.706 57.185,41.576C57.007,41.553 56.84,41.515 56.678,41.468C55.811,41.22 55.186,40.631 54.964,39.66C54.885,39.312 54.836,38.949 54.836,38.592C54.826,35.657 54.836,32.721 54.826,29.785C54.825,29.557 54.763,29.312 54.665,29.105C54.556,28.873 54.413,28.697 54.246,28.565C53.939,28.322 53.545,28.233 53.09,28.265C52.228,28.327 51.649,28.949 51.65,29.807C51.651,31.547 51.65,33.288 51.65,35.028C51.65,35.477 51.65,35.926 51.65,36.375C51.65,37.07 51.651,37.765 51.65,38.46C51.649,39.257 51.756,40.038 51.957,40.809C52.232,41.863 52.795,42.744 53.662,43.386C54.083,43.698 54.54,43.933 55.021,44.105C55.246,44.186 55.476,44.251 55.711,44.305C56.018,44.376 56.331,44.427 56.649,44.456C58.155,44.595 59.654,44.511 61.126,44.146C61.662,44.014 62.196,43.863 62.716,43.679C62.795,43.652 62.876,43.63 62.954,43.6C63.755,43.292 64.105,42.653 64.104,41.804C64.101,39.827 64.103,37.849 64.103,35.872L64.106,35.872C64.106,33.843 64.105,31.813 64.107,29.784C64.107,29.521 64.046,29.276 63.918,29.046C63.569,28.42 63.017,28.213 62.332,28.267" style="fill:white;fill-rule:nonzero;"/>
    </g>
    <g transform="matrix(4.16667,0,0,4.16667,-159.809,-117.725)">
        <path d="M103.289,49.033L38.443,49.033C38.394,49.033 38.354,48.993 38.354,48.945C38.354,48.896 38.394,48.856 38.443,48.856L103.289,48.856C103.338,48.856 103.378,48.896 103.378,48.945C103.378,48.993 103.338,49.033 103.289,49.033" style="fill:white;fill-rule:nonzero;"/>
    </g>
</svg>
